<svg xmlns="http://www.w3.org/2000/svg" width="30" height="30" fill="none"><path fill="currentColor" d="M15 3c3.3963 0 3.82.0125 5.1525.075 1.3312.0625 2.2375.2712 3.035.5812.825.3175 1.52.7475 2.215 1.4413a6.1366 6.1366 0 0 1 1.4413 2.215c.3087.7963.5187 1.7037.5812 3.035.0588 1.3325.075 1.7562.075 5.1525s-.0125 3.82-.075 5.1525c-.0625 1.3312-.2725 2.2375-.5812 3.035a6.105 6.105 0 0 1-1.4413 2.215 6.1443 6.1443 0 0 1-2.215 1.4413c-.7963.3087-1.7038.5187-3.035.5812C18.82 27.9838 18.3963 28 15 28s-3.82-.0125-5.1525-.075c-1.3313-.0625-2.2375-.2725-3.035-.5812a6.113 6.113 0 0 1-2.215-1.4413 6.1306 6.1306 0 0 1-1.4413-2.215c-.31-.7963-.5187-1.7038-.5812-3.035C2.5162 19.32 2.5 18.8963 2.5 15.5s.0125-3.82.075-5.1525.2712-2.2375.5812-3.035a6.1 6.1 0 0 1 1.4413-2.215 6.1213 6.1213 0 0 1 2.215-1.4413c.7975-.31 1.7025-.5187 3.035-.5812C11.18 3.0162 11.6037 3 15 3Zm0 6.25a6.2499 6.2499 0 1 0 0 12.4998A6.2499 6.2499 0 0 0 15 9.25Zm8.125-.3125a1.5625 1.5625 0 1 0-3.125 0 1.5625 1.5625 0 0 0 3.125 0ZM15 11.75c.9946 0 1.9484.3951 2.6517 1.0983a3.7503 3.7503 0 0 1 0 5.3034 3.7503 3.7503 0 0 1-5.3034 0 3.7503 3.7503 0 0 1 0-5.3034A3.7503 3.7503 0 0 1 15 11.75Z"/></svg>