<svg xmlns="http://www.w3.org/2000/svg" width="24" height="24" fill="none"><path fill="currentColor" d="M12 0c3.26 0 3.667.012 4.946.072 1.278.06 2.148.26 2.914.558a5.85 5.85 0 0 1 2.126 1.384A5.89 5.89 0 0 1 23.37 4.14c.296.764.498 1.636.558 2.914C23.984 8.333 24 8.74 24 12s-.012 3.667-.072 4.946c-.06 1.278-.262 2.148-.558 2.914a5.86 5.86 0 0 1-1.384 2.126 5.897 5.897 0 0 1-2.126 1.384c-.764.296-1.636.498-2.914.558C15.667 23.984 15.26 24 12 24s-3.667-.012-4.946-.072c-1.278-.06-2.148-.262-2.914-.558a5.868 5.868 0 0 1-2.126-1.384A5.885 5.885 0 0 1 .63 19.86c-.298-.764-.498-1.636-.558-2.914C.016 15.667 0 15.26 0 12s.012-3.667.072-4.946c.06-1.28.26-2.148.558-2.914.3-.801.773-1.527 1.384-2.126A5.876 5.876 0 0 1 4.14.63C4.906.332 5.774.132 7.054.072 8.333.016 8.74 0 12 0Zm0 6a6 6 0 1 0 0 12 6 6 0 0 0 0-12Zm7.8-.3a1.5 1.5 0 1 0-3 0 1.5 1.5 0 0 0 3 0ZM12 8.4a3.6 3.6 0 1 1 0 7.2 3.6 3.6 0 0 1 0-7.2Z"/></svg>