<svg xmlns="http://www.w3.org/2000/svg" width="24" height="24" fill="none"><path fill="currentColor" fill-rule="evenodd" d="M24 12c0 6.627-5.373 12-12 12S0 18.627 0 12 5.373 0 12 0s12 5.373 12 12Zm-5.755-1.755c.968 0 1.754.786 1.754 1.755 0 .716-.435 1.333-1.01 1.614.028.168.042.337.042.52 0 2.694-3.13 4.87-7.003 4.87-3.874 0-7.004-2.176-7.004-4.87 0-.183.014-.366.042-.534A1.748 1.748 0 0 1 4.028 12c0-.969.786-1.755 1.754-1.755.463 0 .898.197 1.207.492 1.207-.885 2.877-1.432 4.744-1.488l.884-4.183c.028-.084.07-.154.14-.196s.155-.056.239-.042l2.905.617a1.214 1.214 0 0 1 1.109-.701c.688 0 1.25.561 1.25 1.249a1.25 1.25 0 0 1-2.498.056l-2.598-.547-.8 3.747c1.825.07 3.481.631 4.674 1.488.309-.31.73-.492 1.207-.492ZM9.25 12c-.688 0-1.25.561-1.25 1.249 0 .688.562 1.25 1.25 1.25.687 0 1.249-.562 1.249-1.25s-.562-1.25-1.25-1.25Zm2.765 5.46c.477 0 2.105-.057 2.96-.913a.361.361 0 0 0 .029-.463.33.33 0 0 0-.463 0c-.547.533-1.684.73-2.512.73-.829 0-1.98-.197-2.513-.73a.33.33 0 0 0-.463 0 .33.33 0 0 0 0 .463c.842.842 2.484.912 2.961.912Zm1.487-4.211c0 .688.562 1.25 1.25 1.25.687 0 1.249-.562 1.249-1.25s-.562-1.25-1.25-1.25c-.687 0-1.249.562-1.249 1.25Z" clip-rule="evenodd"/></svg>