<svg xmlns="http://www.w3.org/2000/svg" width="24" height="24" fill="none"><path fill="currentColor" fill-rule="evenodd" d="M24 12c0 6.6274-5.3726 12-12 12S0 18.6274 0 12 5.3726 0 12 0s12 5.3726 12 12Zm-5.7549-1.7546c.9684 0 1.7544.786 1.7544 1.7544 0 .7158-.4351 1.3333-1.0106 1.614.0281.1685.0422.3369.0422.5193 0 2.6948-3.1299 4.8702-7.0035 4.8702-3.8737 0-7.0035-2.1754-7.0035-4.8702 0-.1824.014-.3649.042-.5333-.6175-.2807-1.0385-.8842-1.0385-1.6 0-.9684.786-1.7544 1.7544-1.7544.4631 0 .8982.1965 1.207.4912 1.207-.8842 2.8772-1.4315 4.7438-1.4877l.8842-4.1824c.0281-.0842.0702-.1544.1404-.1965s.1544-.0562.2386-.0421l2.9052.6175c.1965-.421.6176-.7018 1.1088-.7018.6877 0 1.2491.5615 1.2491 1.2492 0 .6877-.5614 1.2491-1.2491 1.2491-.6737 0-1.221-.5333-1.2491-1.193l-2.5965-.5473-.8 3.7473c1.8246.0702 3.4807.6316 4.6737 1.4877.3087-.3087.7298-.4912 1.207-.4912Zm-8.9965 1.7544c-.6877 0-1.249.5614-1.249 1.2491 0 .6878.5613 1.2492 1.249 1.2492.6877 0 1.2491-.5614 1.2491-1.2492 0-.6877-.5614-1.2491-1.249-1.2491Zm2.7649 5.4597c.4772 0 2.1053-.0562 2.9614-.9123.1263-.1263.1263-.3228.0281-.4632-.1263-.1263-.3368-.1263-.4632 0-.5473.5334-1.6842.7299-2.5122.7299-.8281 0-1.979-.1965-2.5123-.7299-.1263-.1263-.3369-.1263-.4632 0-.1263.1263-.1263.3369 0 .4632.8421.8421 2.4842.9123 2.9614.9123Zm1.4877-4.2106c0 .6878.5614 1.2492 1.2492 1.2492.6877 0 1.2491-.5614 1.2491-1.2492 0-.6877-.5614-1.2491-1.2491-1.2491-.6878 0-1.2492.5614-1.2492 1.2491Z" clip-rule="evenodd"/></svg>