<svg xmlns="http://www.w3.org/2000/svg" width="24" height="24" fill="none"><path fill="currentColor" d="M12 5.538A6.47 6.47 0 0 0 5.538 12 6.47 6.47 0 0 0 12 18.462 6.47 6.47 0 0 0 18.462 12 6.47 6.47 0 0 0 12 5.538Zm0 11.077a4.615 4.615 0 1 1 0-9.23 4.615 4.615 0 0 1 0 9.23Zm0-12.923c.51 0 .923-.413.923-.923V.923a.923.923 0 0 0-1.846 0V2.77c0 .51.413.923.923.923Zm0 16.616a.923.923 0 0 0-.923.923v1.846a.923.923 0 0 0 1.846 0V21.23a.923.923 0 0 0-.923-.923Zm7.18-14.183 1.304-1.305a.923.923 0 1 0-1.305-1.306L17.874 4.82a.923.923 0 1 0 1.305 1.305ZM4.82 17.875 3.517 19.18a.923.923 0 1 0 1.305 1.306l1.305-1.306a.923.923 0 1 0-1.305-1.305ZM3.693 12a.923.923 0 0 0-.923-.923H.923a.923.923 0 0 0 0 1.846H2.77c.51 0 .923-.413.923-.923Zm19.385-.923H21.23a.923.923 0 0 0 0 1.846h1.846a.923.923 0 0 0 0-1.846ZM4.82 6.125A.923.923 0 1 0 6.125 4.82L4.82 3.514A.923.923 0 1 0 3.514 4.82L4.82 6.125Zm14.36 11.749a.923.923 0 1 0-1.305 1.305l1.305 1.305a.923.923 0 1 0 1.306-1.305l-1.306-1.305Z"/></svg>