<svg xmlns="http://www.w3.org/2000/svg" width="27" height="22" fill="none"><path fill="currentColor" d="M26.46 2.502c-.956.424-1.983.71-3.063.84A5.348 5.348 0 0 0 25.742.388a10.65 10.65 0 0 1-3.387 1.294 5.335 5.335 0 0 0-9.227 3.653c0 .417.048.822.137 1.214A15.148 15.148 0 0 1 2.27.976a5.332 5.332 0 0 0-.721 2.681c0 1.85.942 3.485 2.373 4.441a5.322 5.322 0 0 1-2.417-.668v.07a5.337 5.337 0 0 0 4.28 5.23 5.376 5.376 0 0 1-2.41.091 5.337 5.337 0 0 0 4.984 3.704 10.704 10.704 0 0 1-6.626 2.284c-.43 0-.855-.025-1.273-.075a15.086 15.086 0 0 0 8.176 2.397c9.813 0 15.178-8.128 15.178-15.177 0-.229-.006-.46-.016-.689a10.845 10.845 0 0 0 2.66-2.76l.002-.003Z"/></svg>