<svg xmlns="http://www.w3.org/2000/svg" width="26" height="22" fill="none"><path fill="currentColor" d="M26 2.6582c-.9561.4237-1.9833.71-3.0631.8394 1.1016-.6596 1.9467-1.7062 2.3451-2.952a10.649 10.649 0 0 1-3.3871 1.294C20.9216.8043 19.5361.1562 18.0017.1562c-2.9451 0-5.3338 2.3886-5.3338 5.336 0 .4168.0481.8221.1374 1.2138-4.4348-.2233-8.3636-2.3474-10.995-5.5743a5.3318 5.3318 0 0 0-.7213 2.6818c0 1.8504.9424 3.4845 2.3725 4.4406a5.3218 5.3218 0 0 1-2.416-.6676v.0687c0 2.5845 1.8378 4.7406 4.279 5.2307a5.3721 5.3721 0 0 1-1.405.1855c-.3434 0-.679-.032-1.0042-.0939.679 2.1184 2.6486 3.662 4.9834 3.7032-1.8264 1.4313-4.1268 2.2844-6.6254 2.2844-.4305 0-.8553-.0252-1.2733-.0744 2.3611 1.5149 5.1643 2.3966 8.1758 2.3966 9.8133 0 15.1779-8.1277 15.1779-15.1768 0-.229-.0057-.4603-.016-.6893a10.8453 10.8453 0 0 0 2.66-2.7596L26 2.6582Z"/></svg>